<svg xmlns="http://www.w3.org/2000/svg" xmlns:xlink="http://www.w3.org/1999/xlink" viewBox="-150 -20 1130 280"><defs><style>.cls-1,.cls-2,.cls-3,.cls-4,.cls-6,.cls-7,.cls-8,.cls-9{stroke-miterlimit:10;}.cls-1,.cls-2,.cls-3,.cls-4,.cls-6,.cls-9{stroke-width:5px;}.cls-1{fill:url(#Unbenannter_Verlauf_10);stroke:url(#Unbenannter_Verlauf_10-2);}.cls-2{fill:url(#Unbenannter_Verlauf_10-3);stroke:url(#Unbenannter_Verlauf_10-4);}.cls-3{fill:url(#Unbenannter_Verlauf_10-5);stroke:url(#Unbenannter_Verlauf_10-6);}.cls-4{fill:url(#Unbenannter_Verlauf_10-7);stroke:url(#Unbenannter_Verlauf_10-8);}.cls-5,.cls-9{fill:url(#Unbenannter_Verlauf_12);}.cls-6{fill:url(#Unbenannter_Verlauf_3);stroke:url(#Unbenannter_Verlauf_3-2);}.cls-7,.cls-8{fill:none;}.cls-7{stroke-width:12px;stroke:url(#Unbenannter_Verlauf_3-3);}.cls-8{stroke-width:4px;stroke:url(#Unbenannter_Verlauf_7);}.cls-9{stroke:#fff;opacity:0;}</style><linearGradient id="Unbenannter_Verlauf_10" x1="362.94" y1="202.51" x2="362.94" y2="42.85" gradientUnits="userSpaceOnUse"><stop offset="0" stop-color="#fff"/><stop offset="1"/></linearGradient><linearGradient id="Unbenannter_Verlauf_10-2" x1="362.94" y1="40.35" x2="362.94" y2="205.01" xlink:href="#Unbenannter_Verlauf_10"/><linearGradient id="Unbenannter_Verlauf_10-3" x1="507.98" y1="205.67" x2="507.98" y2="39.69" xlink:href="#Unbenannter_Verlauf_10"/><linearGradient id="Unbenannter_Verlauf_10-4" x1="507.98" y1="37.19" x2="507.98" y2="208.17" xlink:href="#Unbenannter_Verlauf_10"/><linearGradient id="Unbenannter_Verlauf_10-5" x1="659.97" y1="202.51" x2="659.97" y2="42.85" xlink:href="#Unbenannter_Verlauf_10"/><linearGradient id="Unbenannter_Verlauf_10-6" x1="659.97" y1="40.35" x2="659.97" y2="205.01" xlink:href="#Unbenannter_Verlauf_10"/><linearGradient id="Unbenannter_Verlauf_10-7" x1="776.52" y1="202.51" x2="776.52" y2="42.85" xlink:href="#Unbenannter_Verlauf_10"/><linearGradient id="Unbenannter_Verlauf_10-8" x1="776.52" y1="40.35" x2="776.52" y2="205.01" xlink:href="#Unbenannter_Verlauf_10"/><linearGradient id="Unbenannter_Verlauf_12" x1="216.07" y1="126.57" x2="266.77" y2="214.39" gradientUnits="userSpaceOnUse"><stop offset="0" stop-color="silver"/><stop offset="0.67" stop-color="#3c3c3b"/></linearGradient><linearGradient id="Unbenannter_Verlauf_3" x1="122.68" y1="205.67" x2="122.68" y2="39.69" gradientUnits="userSpaceOnUse"><stop offset="0" stop-color="#fff"/><stop offset="1" stop-color="#1d1d1b"/></linearGradient><linearGradient id="Unbenannter_Verlauf_3-2" x1="122.68" y1="37.19" x2="122.68" y2="208.17" xlink:href="#Unbenannter_Verlauf_3"/><linearGradient id="Unbenannter_Verlauf_3-3" x1="64.82" y1="17.35" x2="194.5" y2="241.97" xlink:href="#Unbenannter_Verlauf_3"/><linearGradient id="Unbenannter_Verlauf_7" x1="189.49" y1="233.29" x2="69.83" y2="26.03" gradientUnits="userSpaceOnUse"><stop offset="0" stop-color="#ededed"/><stop offset="1" stop-color="#3c3c3b"/></linearGradient></defs><title>jaysoft</title><g id="Ebene_2" data-name="Ebene 2"><g id="Letters"><g id="JaySoft"><g id="Soft"><path class="cls-1" d="M364.29,42.85A58.68,58.68,0,0,0,363.12,53a21.63,21.63,0,0,0,3,10.53q3,5.38,10.7,14.15,15.67,17.9,21.58,25.44a100.22,100.22,0,0,1,9.53,14.33q8.3,14.85,8.3,29.71A56.87,56.87,0,0,1,408.5,176q-15.21,26.55-54.62,26.55H309.66V164.14h39.18q12.28,0,17.54-6.2a16.68,16.68,0,0,0,4.33-10.88q0-7-4.8-14.21t-24.09-29.42q-16.38-18.71-20.47-28.77a44.65,44.65,0,0,1-3.74-16.84,93.06,93.06,0,0,1,1.64-15Z"/><path class="cls-2" d="M507.45,39.69a89.1,89.1,0,0,1,39.77,9.12q25.15,12.4,36,37.66,6.9,16.14,6.9,37,0,35.44-22.81,58.95-22.57,23.28-58.25,23.28t-58.72-22.22q-24.56-23.63-24.56-60.12a88.53,88.53,0,0,1,10.06-41.76,75.87,75.87,0,0,1,33.57-33Q486.28,40,507.45,39.69Zm.23,36.73q-18,0-27.6,13.22-8.77,12.16-8.77,32.63,0,21.52,10.18,34.74,9.24,11.93,26.78,11.93,18.95,0,28.31-14.39,8.07-12.52,8.07-31.23,0-22.81-10.76-35.32Q524.29,76.65,507.68,76.42Z"/><path class="cls-3" d="M713.89,42.85V81.22H606V42.85Zm0,61.41v38.36h-64v59.89H606V104.26Z"/><path class="cls-4" d="M828,42.85V81.22H725V42.85Zm-52.17,61.41V144q0,12.4,3.63,16.26t15.09,3.86h28.19v38.36h-40.7q-25.85,0-37.72-13.45t-11.87-42.81v-42Z"/></g><g id="ay"><path class="cls-5" d="M222.2,126c2.63,2.32,2.48,5.62-.32,7.95a165.23,165.23,0,0,0-18.81,18.31c-1.92,2.2-4.29,4-6.26,6.15-2.37,2.59-4.53,5.38-6.78,8.08l.49.67a5,5,0,0,0,1.55-.43c1.72-1.18,3.43-2.38,5-3.69,3-2.41,5.93-4.85,8.82-7.37,1.36-1.18,2.42-2.73,3.83-3.83a30.49,30.49,0,0,1,6.23-4.09c3.55-1.56,5.73,0,5.83,3.85.07,2.58-.33,5.2,0,7.73a10.57,10.57,0,0,0,2.15,5c1.34,1.68,3.33,1.42,5,0,4.24-3.69,8.59-7.26,12.72-11.06,3-2.73,5.55-5.88,8.51-8.62a16.32,16.32,0,0,1,5.22-3.28c2.71-1,5,.77,4.83,3.66a29.18,29.18,0,0,1-1.07,5.51c-1,4-2.13,8.07-3.11,12.12a12.55,12.55,0,0,0,.12,3,13.24,13.24,0,0,0,2.28-1.15c3.34-2.74,6.79-5.37,9.91-8.33,5.41-5.13,10.62-10.48,15.89-15.76,2.44-2.44,5.45-2.7,8.55-2.14,1.57.28,2,1.71,1.54,3.16-1.33,4.61-2.61,9.24-4.14,13.79s-3.35,9-5,13.51a5.24,5.24,0,0,0-.35,2.25c4.91-2.68,8.35-7,12.56-10.71.91,2.06,1.88,4,2.56,6a2.4,2.4,0,0,1-.74,2c-2.3,1.92-4.7,3.72-7.1,5.52a77.09,77.09,0,0,0-20.74,23A221.57,221.57,0,0,1,258.55,216c-3.4,4.64-7.67,8.52-13.5,10.08-2,.53-4.19,1.16-5.59-.83s-.11-3.93,1-5.59c1.53-2.22,3.32-4.26,4.91-6.44,3.1-4.25,6-8.67,9.26-12.78,3.48-4.36,7.4-8.35,10.94-12.66a24.12,24.12,0,0,0,3-5.4c2.59-5.7,5.48-11.31,6.21-17.66.2-1.74.25-3.5.37-5.25l-.81-.45c-2.13,1.94-4.23,3.91-6.38,5.82-2.79,2.49-5.64,4.91-8.43,7.41a15.2,15.2,0,0,0-2.09,2.28,10.6,10.6,0,0,1-9.6,4.5c-3.19-.17-4.56-1.9-4.46-5.09.1-3,.17-6.06.1-9.09a7.9,7.9,0,0,0-.91-2.41,8.82,8.82,0,0,0-2,1c-3.32,2.87-6.49,5.94-9.93,8.65a23.88,23.88,0,0,1-7.27,4.35c-7.06,2.19-12.57-2.21-13.37-10.2-.1-1-.38-2-.7-3.52-4.63,4.21-8.9,7.88-12.93,11.81a42,42,0,0,1-11.95,8c-3.81,1.76-6.72.47-9.21-3.78a13.92,13.92,0,0,1,1.19-4.61,11.59,11.59,0,0,1,1.43-4.65,7.24,7.24,0,0,0,.55-3.43,6,6,0,0,0-1.22-2.84c-1.71-2.28-.71-4.17.77-5.91a10.7,10.7,0,0,1,2.64-2c2.68-1.65,5.26-3.37,6.89-6.2a6.63,6.63,0,0,1,1.63-1.6c3.31-2.74,6.78-5.3,9.94-8.2C204.83,134,210.57,128.79,218,126Z"/></g><g id="J"><path class="cls-6" d="M167.82,39.69V146.79q0,30-15.07,44.45t-46.48,14.43H77.54V159.42H99.21q8.23,0,12.29-4t4.06-12.23V39.69Z"/></g></g></g><g id="Circle"><circle id="Circle_aussen" data-name="Circle aussen" class="cls-7" cx="129.66" cy="129.66" r="123.66"/><circle id="Circle_innen" data-name="Circle innen" class="cls-8" cx="129.66" cy="129.66" r="117.64"/><path id="Aussparung" class="cls-9" d="M222.2,126c2.63,2.32,2.48,5.62-.32,7.95a165.23,165.23,0,0,0-18.81,18.31c-1.92,2.2-4.29,4-6.26,6.15-2.37,2.59-4.53,5.38-6.78,8.08l.49.67a5,5,0,0,0,1.55-.43c1.72-1.18,3.43-2.38,5-3.69,3-2.41,5.93-4.85,8.82-7.37,1.36-1.18,2.42-2.73,3.83-3.83a30.49,30.49,0,0,1,6.23-4.09c3.55-1.56,5.73,0,5.83,3.85.07,2.58-.33,5.2,0,7.73a10.57,10.57,0,0,0,2.15,5c1.34,1.68,3.33,1.42,5,0,4.24-3.69,8.59-7.26,12.72-11.06,3-2.73,5.55-5.88,8.51-8.62a16.32,16.32,0,0,1,5.22-3.28c2.71-1,5,.77,4.83,3.66a29.18,29.18,0,0,1-1.07,5.51c-1,4-2.13,8.07-3.11,12.12a12.55,12.55,0,0,0,.12,3,13.24,13.24,0,0,0,2.28-1.15c3.34-2.74,6.79-5.37,9.91-8.33,5.41-5.13,10.62-10.48,15.89-15.76,2.44-2.44,5.45-2.7,8.55-2.14,1.57.28,2,1.71,1.54,3.16-1.33,4.61-2.61,9.24-4.14,13.79s-3.35,9-5,13.51a5.24,5.24,0,0,0-.35,2.25c4.91-2.68,8.35-7,12.56-10.71.91,2.06,1.88,4,2.56,6a2.4,2.4,0,0,1-.74,2c-2.3,1.92-4.7,3.72-7.1,5.52a77.09,77.09,0,0,0-20.74,23A221.57,221.57,0,0,1,258.55,216c-3.4,4.64-7.67,8.52-13.5,10.08-2,.53-4.19,1.16-5.59-.83s-.11-3.93,1-5.59c1.53-2.22,3.32-4.26,4.91-6.44,3.1-4.25,6-8.67,9.26-12.78,3.48-4.36,7.4-8.35,10.94-12.66a24.12,24.12,0,0,0,3-5.4c2.59-5.7,5.48-11.31,6.21-17.66.2-1.74.25-3.5.37-5.25l-.81-.45c-2.13,1.94-4.23,3.91-6.38,5.82-2.79,2.49-5.64,4.91-8.43,7.41a15.2,15.2,0,0,0-2.09,2.28,10.6,10.6,0,0,1-9.6,4.5c-3.19-.17-4.56-1.9-4.46-5.09.1-3,.17-6.06.1-9.09a7.9,7.9,0,0,0-.91-2.41,8.82,8.82,0,0,0-2,1c-3.32,2.87-6.49,5.94-9.93,8.65a23.88,23.88,0,0,1-7.27,4.35c-7.06,2.19-12.57-2.21-13.37-10.2-.1-1-.38-2-.7-3.52-4.63,4.21-8.9,7.88-12.93,11.81a42,42,0,0,1-11.95,8c-3.81,1.76-6.72.47-9.21-3.78a13.92,13.92,0,0,1,1.19-4.61,11.59,11.59,0,0,1,1.43-4.65,7.24,7.24,0,0,0,.55-3.43,6,6,0,0,0-1.22-2.84c-1.71-2.28-.71-4.17.77-5.91a10.7,10.7,0,0,1,2.64-2c2.68-1.65,5.26-3.37,6.89-6.2a6.63,6.63,0,0,1,1.63-1.6c3.31-2.74,6.78-5.3,9.94-8.2C204.83,134,210.57,128.79,218,126Z"/></g></g></svg>